<svg width="55" height="55" viewBox="0 0 55 55" fill="none" xmlns="http://www.w3.org/2000/svg">
<g clip-path="url(#clip0)">
<path d="M54.8827 25.4484C53.9765 17.4314 47.516 10.8855 39.5096 9.89406C30.8635 8.82796 22.8571 14.0092 20.3198 22.2608L16.855 24.1478V14.1371C20.3518 13.7 23.0597 10.7043 23.0597 7.09022C23.0597 3.17764 19.8721 -0.00999451 15.9595 -0.00999451C14.3284 -0.00999451 12.7825 0.533716 11.5245 1.54651C10.2772 0.544377 8.73134 0.000666474 7.10021 0.000666474C3.18763 0.000666474 0 3.1883 0 7.10088C0 10.715 2.71855 13.7 6.20469 14.1478V40.8749C2.71855 41.3013 0 44.297 0 47.9005C0 51.813 3.18763 55.0007 7.10021 55.0007C8.73134 55.0007 10.2772 54.457 11.5352 53.4442C12.7932 54.457 14.339 55.0007 15.9701 55.0007C19.8827 55.0007 23.0704 51.813 23.0704 47.9005C23.0704 44.2864 20.3518 41.3013 16.8657 40.8535V30.8429L20.3305 32.7299C22.6119 40.1073 29.5203 45.2352 37.2708 45.2352C42.3134 45.2352 47.1429 43.071 50.5011 39.3077C53.9019 35.5017 55.4584 30.5764 54.8827 25.4484ZM15.9701 42.5806C18.9019 42.5806 21.29 44.9687 21.29 47.9005C21.29 50.8322 18.9019 53.2203 15.9701 53.2203C14.5309 53.2203 13.177 52.6552 12.1642 51.6211L11.5352 50.9708L10.9062 51.6211C9.89339 52.6552 8.53945 53.2203 7.10021 53.2203C4.16844 53.2203 1.78038 50.8322 1.78038 47.9005C1.78038 44.9687 4.16844 42.5806 7.10021 42.5806H7.98507V12.4207H7.10021C4.16844 12.4207 1.78038 10.0326 1.78038 7.10088C1.78038 4.16911 4.15778 1.77039 7.10021 1.77039C8.53945 1.77039 9.89339 2.33542 10.9062 3.36954L11.5352 4.01986L12.1642 3.36954C13.177 2.33542 14.5309 1.77039 15.9701 1.77039C18.9019 1.77039 21.29 4.15845 21.29 7.09022C21.29 10.022 18.9019 12.41 15.9701 12.41H15.0853V25.1073L14.5522 25.3951C13.7846 25.8109 13.3156 26.6105 13.3156 27.4847C13.3156 28.3589 13.7953 29.1584 14.5522 29.5742L15.0853 29.8621V42.5593H15.9701V42.5806ZM49.1684 38.135C46.1407 41.5252 41.8017 43.4655 37.2601 43.4655C30.1812 43.4655 23.8699 38.7107 21.919 31.8877L21.8124 31.5252L15.3945 28.0177C15.2026 27.9111 15.0746 27.7086 15.0746 27.4847C15.0746 27.2608 15.1919 27.0582 15.3945 26.9516L21.8124 23.4442L21.919 23.0924C23.9019 16.1414 30.1812 11.5145 37.2708 11.5145C37.9424 11.5145 38.6141 11.5572 39.2964 11.6425C46.4925 12.5273 52.3134 18.4122 53.1237 25.6297C53.6461 30.2672 52.2388 34.7022 49.1684 38.135Z" fill="#003A70"/>
<path d="M37.2601 13.3049C29.4349 13.3049 23.0703 19.6695 23.0703 27.4947C23.0703 35.3198 29.4349 41.6844 37.2601 41.6844C45.0852 41.6844 51.4498 35.3198 51.4498 27.4947C51.4498 19.6695 45.0852 13.3049 37.2601 13.3049ZM37.2601 39.9147C30.4157 39.9147 24.84 34.339 24.84 27.4947C24.84 20.6503 30.4157 15.0746 37.2601 15.0746C44.1044 15.0746 49.6801 20.6503 49.6801 27.5053C49.6801 34.3604 44.1044 39.9147 37.2601 39.9147Z" fill="#003A70"/>
<path d="M33.71 28.3902C35.1812 28.3902 36.3752 27.1962 36.3752 25.725C36.3752 24.2537 35.1812 23.0597 33.71 23.0597C35.1812 23.0597 36.3752 21.8657 36.3752 20.3945C36.3752 18.9232 35.1812 17.7292 33.71 17.7292C30.7782 17.7292 28.3901 20.1173 28.3901 23.049C28.3901 25.9808 30.7782 28.3902 33.71 28.3902ZM33.71 19.5203C34.2004 19.5203 34.5948 19.9147 34.5948 20.4051C34.5948 20.8955 34.2004 21.29 33.71 21.29C32.7292 21.29 31.9402 22.0896 31.9402 23.0597C31.9402 24.0299 32.7398 24.8294 33.71 24.8294C34.2004 24.8294 34.5948 25.2239 34.5948 25.7143C34.5948 26.2047 34.2004 26.5992 33.71 26.5992C31.7483 26.5992 30.1599 25.0107 30.1599 23.049C30.1599 21.1087 31.7483 19.5203 33.71 19.5203Z" fill="#003A70"/>
<path d="M31.9403 31.0448C30.4691 31.0448 29.275 32.2388 29.275 33.71C29.275 35.1812 30.4691 36.3753 31.9403 36.3753C33.4115 36.3753 34.6055 35.1812 34.6055 33.71C34.5949 32.2388 33.4008 31.0448 31.9403 31.0448ZM31.9403 34.5949C31.4499 34.5949 31.0554 34.2004 31.0554 33.71C31.0554 33.2196 31.4499 32.8252 31.9403 32.8252C32.4307 32.8252 32.8251 33.2196 32.8251 33.71C32.8251 34.2004 32.42 34.5949 31.9403 34.5949Z" fill="#003A70"/>
<path d="M43.4648 19.5203H41.6951V21.29H43.4648V19.5203Z" fill="#003A70"/>
<path d="M29.2751 28.3902H27.5054V30.1599H29.2751V28.3902Z" fill="#003A70"/>
<path d="M42.1429 24.5842C41.5032 24.1685 40.757 23.9552 39.9254 23.9552C38.4542 23.9552 37.2602 25.1493 37.2602 26.6205C37.2602 27.8145 38.0704 28.8486 39.1685 29.1685C39.2111 29.2964 39.2751 29.467 39.3604 29.7228C39.2858 29.968 39.2218 30.1493 39.1685 30.2772C38.0597 30.6077 37.2495 31.6418 37.2495 32.8358C37.2495 34.307 38.4435 35.5011 39.9148 35.5011C40.8209 35.5011 41.5352 35.2559 42.1322 34.8721C42.7719 35.2879 43.5182 35.5011 44.3497 35.5011C45.8209 35.5011 47.015 34.307 47.015 32.8358C47.015 31.6418 46.2047 30.6077 45.1067 30.2879C45.064 30.1599 45 29.9893 44.9148 29.7335C44.9894 29.4883 45.0534 29.307 45.1067 29.1791C46.2154 28.8486 47.0256 27.8145 47.0256 26.6205C47.0256 25.1493 45.8316 23.9552 44.3604 23.9552C43.4542 23.9552 42.7293 24.2004 42.1429 24.5842ZM39.0299 26.6098C39.0299 26.1194 39.4244 25.725 39.9148 25.725C40.2559 25.725 40.5651 25.7889 40.8423 25.8955C40.5011 26.4073 40.2452 26.9723 40.0427 27.5053L39.8401 27.484C39.3924 27.4627 39.0299 27.0682 39.0299 26.6098ZM45.2452 32.8252C45.2452 33.3156 44.8508 33.71 44.3604 33.71C44.0192 33.71 43.7101 33.6461 43.4329 33.5395C43.774 33.0277 44.0299 32.4627 44.2325 31.9296L44.435 31.951C44.8828 31.9723 45.2452 32.3667 45.2452 32.8252ZM45.2452 26.6098C45.2452 27.0682 44.8934 27.452 44.435 27.4947L44.0299 27.5267L43.7954 27.8571C43.5288 28.2196 43.2943 28.9232 42.9958 29.9574C42.4094 32.0043 41.7804 33.71 39.9254 33.71C39.435 33.71 39.0406 33.3156 39.0406 32.8252C39.0406 32.3667 39.3924 31.9829 39.8508 31.9403L40.2559 31.9083L40.4905 31.5778C40.757 31.2154 40.9915 30.5117 41.29 29.4776C41.8764 27.4307 42.5054 25.725 44.3604 25.725C44.8401 25.725 45.2452 26.1194 45.2452 26.6098Z" fill="#003A70"/>
<path d="M37.2495 36.3753H35.4797V38.145H37.2495V36.3753Z" fill="#003A70"/>
<path d="M39.9147 16.855H38.145V18.6247H39.9147V16.855Z" fill="#003A70"/>
</g>
<defs>
<clipPath id="clip0">
<rect width="55" height="55" fill="white"/>
</clipPath>
</defs>
</svg>
