<svg width="32" height="55" viewBox="0 0 32 55" fill="none" xmlns="http://www.w3.org/2000/svg">
<g clip-path="url(#clip0)">
<path d="M22.825 55C22.625 55 22.4375 54.95 22.275 54.85C22.1125 54.75 21.975 54.6125 21.875 54.4375L15.625 42.9375L9.375 54.4375C9.2875 54.6125 9.15 54.75 8.975 54.85C8.8125 54.95 8.6125 55 8.425 55H1.0875C0.9 55 0.7125 54.95 0.55 54.8625C0.3875 54.775 0.25 54.6375 0.15 54.475C0.0625 54.3125 0 54.125 0 53.95C0 53.7625 0.0375 53.575 0.125 53.4125L10.6375 33.975L3.3625 21.2625C2.125 19.1125 1.4625 16.6625 1.4625 14.1875C1.4625 11.7125 2.1125 9.2625 3.3625 7.1125C4.6125 4.9625 6.4 3.175 8.55 1.925C10.7 0.675 13.15 0.0125 15.6375 0C18.15 0 20.575 0.65 22.7 1.875C24.8375 3.1125 26.625 4.8875 27.85 7.0375C29.125 9.2 29.8 11.65 29.8125 14.15C29.825 16.65 29.1625 19.1125 27.9125 21.275L20.625 33.9875L31.1375 53.425C31.225 53.5875 31.275 53.775 31.2625 53.9625C31.2625 54.15 31.2 54.325 31.1125 54.4875C31.0125 54.65 30.875 54.775 30.7125 54.875C30.5375 54.95 30.35 55 30.1625 55H22.825ZM15.625 2.1625C13.5125 2.175 11.4375 2.7375 9.6125 3.8C7.8 4.85 6.275 6.375 5.225 8.2C4.175 10.025 3.625 12.1 3.625 14.2C3.625 16.3 4.1875 18.375 5.2375 20.1875L14.05 35.575C14.1625 35.725 14.2 35.7875 14.2375 35.85L23.4625 52.8375H28.3375L11.875 22.375L11.8 22.1875L9.2875 17.7875C8.65 16.6875 8.325 15.425 8.325 14.15C8.325 12.875 8.675 11.625 9.3125 10.525C9.9375 9.425 10.8625 8.5125 11.975 7.875C13.0875 7.2375 14.35 6.9 15.625 6.9C16.9 6.9 18.1625 7.2375 19.275 7.875C20.3875 8.5125 21.3125 9.425 21.95 10.525C22.5875 11.625 22.9375 12.875 22.9375 14.15C22.9375 15.425 22.6125 16.6875 21.975 17.7875L19.45 22.1875L19.375 22.375L16.85 27.0375L19.3875 31.7375L26 20.2C27.0625 18.3625 27.625 16.275 27.6125 14.15C27.6 12.025 27.025 9.9375 25.95 8.1125C24.925 6.3 23.4125 4.7875 21.6 3.75C19.8 2.7125 17.75 2.1625 15.6625 2.1625H15.625ZM2.9 52.8375H7.775L14.3875 40.6625L12.925 37.9625L11.9 36.1875L2.9 52.8375ZM15.625 9.0625C14.725 9.0625 13.8375 9.3 13.0625 9.75C12.2875 10.2 11.6375 10.8375 11.1875 11.6125C10.7375 12.3875 10.5 13.275 10.4875 14.1625C10.4875 15.0625 10.7125 15.95 11.1625 16.725L15.625 24.5125L20.0875 16.7125C20.5375 15.9375 20.7625 15.05 20.7625 14.15C20.7625 13.25 20.5125 12.375 20.0625 11.6C19.6125 10.825 18.9625 10.175 18.175 9.7375C17.4125 9.3 16.525 9.0625 15.625 9.0625Z" fill="#003974"/>
</g>
<defs>
<clipPath id="clip0">
<rect width="31.25" height="55" fill="white"/>
</clipPath>
</defs>
</svg>
