<svg width="51" height="57" viewBox="0 0 51 57" fill="none" xmlns="http://www.w3.org/2000/svg">
<path d="M12.8473 38.2006C13.1726 38.6235 13.5141 39.0138 13.8637 39.4772C15.49 41.5182 17.2301 43.6323 17.1162 45.9823C17.0024 48.3322 16.4495 53.3004 16.4413 53.3736L18.0676 53.5606C18.0676 53.3573 18.6693 48.446 18.7506 46.0392C18.8482 43.1201 16.856 40.6644 15.0997 38.4934C14.7663 38.0787 14.4248 37.6802 14.1077 37.2493C13.5303 36.4931 13.3433 34.6635 13.3433 32.9478C16.8316 36.8915 22.7837 38.4039 25.8655 38.2169C25.6216 39.9163 25.1662 43.3477 24.8572 46.893C24.3287 52.8207 25.8248 55.8374 25.8818 56L27.3373 55.2682C27.3373 55.2682 26.02 52.4141 26.4997 46.9987C26.7681 43.9738 27.1421 41.0303 27.386 39.2008L28.0447 39.8513L28.6139 39.2821L27.5324 38.1925C27.6056 37.6477 27.6544 37.3306 27.6544 37.3225C27.7032 37.0379 27.5975 36.7614 27.3779 36.5744C27.1502 36.3792 26.8412 36.3223 26.5648 36.428C26.3371 36.4931 26.1013 36.5337 25.8655 36.55L25.1418 35.8263L24.5726 36.4036L24.719 36.5581C21.8161 36.363 16.8886 34.818 14.1483 31.346H15.5876V30.5328H13.9613V31.1264C13.7255 30.8174 13.5141 30.484 13.3271 30.1425C13.1563 29.8335 12.8067 29.6709 12.457 29.7441C12.1074 29.8091 11.8472 30.1019 11.8065 30.4515V30.5328H10.7576V31.346H11.7902C11.6845 33.0454 11.6276 36.615 12.8473 38.2006Z" fill="#003A70" stroke="#003A70" stroke-width="0.5"/>
<path d="M38.4039 30.5247H36.7776V31.3378H38.4039V30.5247Z" fill="#003A70" stroke="#003A70" stroke-width="0.5"/>
<path d="M31.8989 30.5247H30.2726V31.3378H31.8989V30.5247Z" fill="#003A70" stroke="#003A70" stroke-width="0.5"/>
<path d="M35.1514 30.5247H33.5251V31.3378H35.1514V30.5247Z" fill="#003A70" stroke="#003A70" stroke-width="0.5"/>
<path d="M25.3938 30.5247H23.7676V31.3378H25.3938V30.5247Z" fill="#003A70" stroke="#003A70" stroke-width="0.5"/>
<path d="M2.62626 30.5247H1V31.3378H2.62626V30.5247Z" fill="#003A70" stroke="#003A70" stroke-width="0.5"/>
<path d="M9.13126 30.5247H7.505V31.3378H9.13126V30.5247Z" fill="#003A70" stroke="#003A70" stroke-width="0.5"/>
<path d="M5.87876 30.5247H4.2525V31.3378H5.87876V30.5247Z" fill="#003A70" stroke="#003A70" stroke-width="0.5"/>
<path d="M7.91969 18.5392L6.76505 17.3927L6.19586 17.9619L7.34237 19.1165L7.91969 18.5392Z" fill="#003A70" stroke="#003A70" stroke-width="0.5"/>
<path d="M49.9178 4.0411L49.7877 3.90287C48.8444 2.95964 47.0637 3.30928 45.657 4.716L35.997 14.376L34.2732 16.0998L21.7754 28.5976L26.7273 26.6542C26.768 27.1258 26.768 27.573 26.768 27.9877C26.8005 29.4514 26.6135 31.3459 25.5564 32.0127C24.4099 32.7689 22.2795 31.8989 21.1574 31.3622H22.182V30.5491H20.5557V31.0451C20.1329 30.8012 19.7263 30.5328 19.336 30.232L19.458 30.11L18.3115 28.9635L18.0838 29.183C17.6854 28.8496 17.2951 28.4349 16.9291 28.0365L17.1568 27.8088L16.0103 26.6623L15.9046 26.768C15.5224 26.2639 15.2704 25.6784 15.1565 25.0605C14.9776 23.4098 17.3194 21.8567 18.2302 21.3933L18.6936 21.1656L18.1407 1H16.5144L17.043 20.1573C16.0428 20.7509 13.7742 22.3284 13.5465 24.4831L13.1318 24.8978L13.5221 25.3207C13.7905 27.1746 15.5712 29.1749 17.2707 30.6304V31.3378H18.1326C18.7262 31.8176 19.3685 32.2404 20.0434 32.6063C20.8972 33.0454 21.7917 33.4032 22.7186 33.6715L22.2958 34.0943L23.4423 35.249L24.0196 34.6716L23.1008 33.7528C23.5317 33.8504 23.9708 33.9073 24.4099 33.9154C25.1255 33.9317 25.8248 33.7365 26.4346 33.3625C27.1502 32.8746 27.6787 32.1591 27.947 31.3378H28.6545V30.5247H28.1747C28.3536 29.6709 28.4268 28.8009 28.3943 27.9308C28.3861 27.3454 28.3292 26.6867 28.3292 26.0037L33.1429 24.1091L37.7371 19.5149L39.4609 17.7911L49.1046 8.17179C50.5195 6.75695 50.8691 4.98433 49.9178 4.0411ZM32.2485 22.743L28.4593 24.2311L35.4522 17.2382L36.6068 18.3847L32.2485 22.743ZM47.9175 7.03341L38.3144 16.6771L37.7371 17.2544L36.5906 16.0998L37.1679 15.4899L46.7628 5.8869C47.6329 5.01685 48.4704 4.94367 48.6005 5.07377L48.7306 5.20387C48.8607 5.33397 48.7875 6.1715 47.9175 7.03341Z" fill="#003A70" stroke="#003A70" stroke-width="0.5"/>
<path d="M34.385 45.0378L33.8101 45.6128L34.96 46.7627L35.5349 46.1877L34.385 45.0378Z" fill="#003A70" stroke="#003A70" stroke-width="0.5"/>
<path d="M29.2075 41.014L30.3458 42.1199L30.915 41.5426L29.7685 40.3961L29.2075 41.014Z" fill="#003A70" stroke="#003A70" stroke-width="0.5"/>
<path d="M9.06776 19.7173L8.4928 20.2923L9.64272 21.4422L10.2177 20.8673L9.06776 19.7173Z" fill="#003A70" stroke="#003A70" stroke-width="0.5"/>
<path d="M32.0668 42.7224L31.4919 43.2974L32.6418 44.4473L33.2168 43.8724L32.0668 42.7224Z" fill="#003A70" stroke="#003A70" stroke-width="0.5"/>
<path d="M11.364 22.0222L10.789 22.5972L11.9389 23.7471L12.5139 23.1721L11.364 22.0222Z" fill="#003A70" stroke="#003A70" stroke-width="0.5"/>
<path d="M27.9308 20.1654C27.3047 12.8473 26.1907 4.27689 25.3857 1.46347L23.8245 1.91069C24.6377 4.7729 25.833 14.2296 26.4184 21.6778L27.9308 20.1654Z" fill="#003A70" stroke="#003A70" stroke-width="0.5"/>
</svg>
