<svg width="73" height="55" viewBox="0 0 73 55" fill="none" xmlns="http://www.w3.org/2000/svg">
<g clip-path="url(#clip0)">
<path d="M1.22388 18.6847C1.41776 23.3256 3.74426 48.069 15.6676 50.0925C27.5788 52.1161 44.143 36.1577 44.9549 31.0079C45.7667 25.8581 47.0754 11.4144 41.3197 7.68231C35.5641 3.95021 29.2995 4.55607 23.4468 4.653C17.5942 4.74994 0.811898 8.99096 1.22388 18.6847Z" stroke="#003974" stroke-width="2" stroke-miterlimit="10" stroke-linecap="round" stroke-linejoin="round"/>
<path d="M48.0568 36.388C48.0568 36.388 59.2774 23.5195 66.2448 23.1196C73.2122 22.7198 73.1152 16.3582 68.0623 13.1229C63.0095 9.88763 55.2423 7.67018 47.0632 8.27604C47.0632 8.27604 50.9044 11.2084 50.6015 19.4845C50.2985 27.7605 48.4809 34.0251 47.972 36.8484C47.4631 39.6717 45.7546 48.6627 59.2774 48.4567" stroke="#003974" stroke-width="2" stroke-miterlimit="10" stroke-linecap="round" stroke-linejoin="round"/>
<path d="M43.828 5.05287L47.4632 1.21172" stroke="#003974" stroke-width="2" stroke-miterlimit="10" stroke-linecap="round" stroke-linejoin="round"/>
<path d="M38.7872 32.4135C38.7872 32.4135 35.152 30.5959 28.4876 36.8605C21.8231 43.1251 13.85 40.4957 13.85 40.4957" stroke="#003974" stroke-width="2" stroke-miterlimit="10" stroke-linecap="round" stroke-linejoin="round"/>
<path d="M41.3076 42.6162C41.3076 42.6162 42.1195 54.8304 58.3686 53.7277" stroke="#003974" stroke-width="2" stroke-miterlimit="10" stroke-linecap="round" stroke-linejoin="round"/>
</g>
<defs>
<clipPath id="clip0">
<rect width="72.8971" height="55" fill="white"/>
</clipPath>
</defs>
</svg>
