<svg width="55" height="56" viewBox="0 0 55 56" fill="none" xmlns="http://www.w3.org/2000/svg">
<path d="M13.75 55H4.58033C3.36311 55 2.2 54.5131 1.34344 53.6566C0.486885 52.8 0 51.6279 0 50.4197V32.45C0.0180328 27.9598 1.82131 23.668 5.01311 20.5033C8.1959 17.3385 12.5057 15.5713 16.9959 15.5803H19.25C20.4672 15.5803 21.6303 16.0672 22.4869 16.9238C23.3434 17.7803 23.8303 18.9525 23.8303 20.1607V23.5959H22V20.1607C22 19.4303 21.7115 18.7361 21.1975 18.2131C20.6836 17.6992 19.9803 17.4107 19.25 17.4107H16.9959C12.9926 17.4016 9.15164 18.9705 6.30246 21.7926C3.46229 24.6148 1.84836 28.4377 1.83033 32.441V50.4107C1.83033 51.141 2.11885 51.8352 2.63279 52.3582C3.14672 52.8721 3.85 53.1607 4.58033 53.1607H13.75C15.941 53.1607 18.0328 52.2861 19.5836 50.7443C21.1344 49.1934 22 47.1016 22 44.9107V28.2303H23.8303V44.9107C23.8303 47.5795 22.7664 50.1492 20.8729 52.0336C18.9885 53.9361 16.4189 55 13.75 55Z" fill="#003974"/>
<path d="M50.25 55.4107H41.0803C38.4115 55.4107 35.8418 54.3468 33.9574 52.4533C32.0639 50.5599 31 47.9992 31 45.3304V28.5238H32.8303V45.3304C32.8303 47.5213 33.7049 49.6131 35.2467 51.164C36.7975 52.7148 38.8893 53.5804 41.0803 53.5804H50.25C50.9803 53.5804 51.6746 53.2918 52.1975 52.7779C52.7115 52.264 53 51.5607 53 50.8304V32.8607C52.982 28.8574 51.368 25.0254 48.5279 22.2123C45.6877 19.3902 41.8377 17.8213 37.8344 17.8304H35.5803C34.85 17.8304 34.1557 18.1189 33.6328 18.6328C33.1189 19.1468 32.8303 19.85 32.8303 20.5804V23.8082H31V20.5804C31 19.3631 31.4869 18.2 32.3434 17.3435C33.2 16.4869 34.3631 16 35.5803 16H37.8344C42.3246 15.991 46.6344 17.7582 49.8172 20.923C53 24.0877 54.8033 28.3795 54.8303 32.8697V50.8394C54.8303 52.0566 54.3434 53.2197 53.4869 54.0763C52.6303 54.9238 51.4582 55.4107 50.25 55.4107Z" fill="#003974"/>
<path d="M43.2155 37.9049L29.0327 26.7066C28.6 26.3639 28.059 26.1746 27.509 26.1746C26.95 26.1746 26.418 26.3639 25.9852 26.7066L11.7844 37.9049L10.6483 36.4623L24.8311 25.2639C25.5975 24.6689 26.5352 24.3443 27.5 24.3443C28.4647 24.3443 29.4024 24.6689 30.1688 25.273L44.3516 36.4713L43.2155 37.9049Z" fill="#003974"/>
<path d="M9.51229 35.0287L8.37622 33.5861L23.8123 21.4049C24.1098 21.1705 24.3443 20.882 24.5065 20.5484C24.6688 20.2148 24.75 19.8451 24.75 19.4754V0H26.5803V19.4754C26.5803 20.1246 26.4361 20.7648 26.1566 21.3508C25.877 21.9369 25.4623 22.4508 24.9484 22.8475L9.51229 35.0287Z" fill="#003974"/>
<path d="M45.4877 35.0287L30.0517 22.8475C29.5377 22.4418 29.132 21.9369 28.8435 21.3508C28.5639 20.7648 28.4107 20.1246 28.4197 19.4754V0H30.25V19.4754C30.25 19.8451 30.3312 20.2148 30.4935 20.5484C30.6558 20.882 30.8902 21.1795 31.1877 21.4049L46.6238 33.5861L45.4877 35.0287Z" fill="#003974"/>
<path d="M40.3303 33.9197H38.5V40.8533H40.3303V33.9197Z" fill="#003974"/>
<path d="M43.6123 25.4082L37.2557 26.5984L37.5893 28.4016L43.9459 27.2115L43.6123 25.4082Z" fill="#003974"/>
<path d="M9.26879 25.4713L8.6106 27.1844L15.436 29.7902L16.0942 28.0771L9.26879 25.4713Z" fill="#003974"/>
<path d="M15.0664 34.8754H13.2361V40.8533H15.0664V34.8754Z" fill="#003974"/>
</svg>
