<?xml version="1.0" encoding="utf-8"?>
<!-- Generator: Adobe Illustrator 24.1.1, SVG Export Plug-In . SVG Version: 6.00 Build 0)  -->
<svg version="1.1" id="Layer_1" xmlns="http://www.w3.org/2000/svg" xmlns:xlink="http://www.w3.org/1999/xlink" x="0px" y="0px"
	 viewBox="0 0 64 55" style="enable-background:new 0 0 64 55;" xml:space="preserve">
<style type="text/css">
	.st0{clip-path:url(#SVGID_2_);}
	.st1{fill:#FFFFFF;}
</style>
<g>
	<defs>
		<rect id="SVGID_1_" width="63.4" height="55"/>
	</defs>
	<clipPath id="SVGID_2_">
		<use xlink:href="#SVGID_1_"  style="overflow:visible;"/>
	</clipPath>
	<g class="st0">
		<path class="st1" d="M24.9,35.4c0.4,0,0.7-0.3,0.7-0.8c0-0.4-0.3-0.7-0.8-0.7c-0.4,0-0.7,0.3-0.7,0.8c0,0.2,0.1,0.4,0.2,0.5
			C24.5,35.3,24.7,35.4,24.9,35.4z"/>
		<path class="st1" d="M51.3,35.4h3.8c0.4,0,0.8-0.3,0.8-0.8c0-0.4-0.3-0.8-0.8-0.8h-3.8c-0.4,0-0.8,0.3-0.8,0.8
			C50.5,35,50.9,35.4,51.3,35.4z"/>
		<path class="st1" d="M57.3,35.4c0.4,0,0.7-0.3,0.7-0.8c0-0.4-0.3-0.7-0.8-0.7c-0.4,0-0.7,0.3-0.7,0.8c0,0.2,0.1,0.4,0.2,0.5
			C56.9,35.3,57.1,35.4,57.3,35.4z"/>
		<path class="st1" d="M62.6,34.6h-2.3v-1.5c0-1.3-1-2.3-2.3-2.3h-2.3c0.5-0.6,0.8-1.4,0.8-2.3c0-2.1-1.7-3.8-3.8-3.8
			c-2.1,0-3.8,1.7-3.8,3.8c0,0.8,0.3,1.6,0.8,2.3h-2.4c0.1-0.2,0.1-0.5,0.1-0.8v-3c0-1.3-1-2.3-2.3-2.3h-7.5c0,0-0.1,0-0.1,0
			l-2.3,0.3l-10.5,1.2c-1.6,0-3,1.4-3,3c0,0.5,0.2,1,0.4,1.5h-1.9c-1.3,0-2.3,1-2.3,2.3v1.5h-2.3c-0.4,0-0.8,0.3-0.8,0.8v2.3
			c0,0.4,0.3,0.8,0.8,0.8h20.4v11.3h-3c-1.3,0-2.3,1-2.3,2.3v2.3c0,0.4,0.3,0.8,0.8,0.8h15.1c0.4,0,0.8-0.3,0.8-0.8V52
			c0-1.3-1-2.3-2.3-2.3h-3v-3.1c1.6-0.4,2.6-2,2.2-3.7c-0.3-1.1-1.1-1.9-2.2-2.2v-2.4h20.4c0.4,0,0.8-0.3,0.8-0.8v-2.3
			C63.4,35,63,34.6,62.6,34.6z M50.5,28.6c0-1.3,1-2.3,2.3-2.3s2.3,1,2.3,2.3s-1,2.3-2.3,2.3S50.5,29.8,50.5,28.6z M37.8,26.3h4.5
			v1.5h-6v-1.3L37.8,26.3z M23.4,29.3c0-0.8,0.7-1.5,1.5-1.5c0,0,0.1,0,0.1,0l9.7-1.1v1.9c0,0.4,0.3,0.8,0.8,0.8H43
			c0.4,0,0.8-0.3,0.8-0.8v-2.3h1.5c0.4,0,0.8,0.3,0.8,0.8v3c0,0.4-0.3,0.8-0.8,0.8H24.9C24.1,30.9,23.4,30.2,23.4,29.3z M16.6,36.9
			v-0.8h1.5c0,0.1,0,0.3,0,0.4c0,0,0,0.1,0,0.1c0,0.1,0,0.1,0.1,0.2L16.6,36.9L16.6,36.9z M19.6,36.1v-0.8h3c0.4,0,0.8-0.3,0.8-0.8
			c0-0.4-0.3-0.8-0.8-0.8h-3v-0.8c0-0.4,0.3-0.8,0.8-0.8h37.7c0.4,0,0.8,0.3,0.8,0.8v3c0,0.4-0.3,0.8-0.8,0.8H20.4
			C19.9,36.9,19.6,36.6,19.6,36.1z M46,52v1.5H32.4V52c0-0.4,0.3-0.8,0.8-0.8h12.1C45.7,51.2,46,51.6,46,52z M43,43.7
			c0,0.8-0.7,1.5-1.5,1.5c-0.8,0-1.5-0.7-1.5-1.5c0-0.8,0.7-1.5,1.5-1.5C42.3,42.2,43,42.9,43,43.7z M40.7,40.8
			c-0.1,0-0.2,0.1-0.3,0.1c0,0-0.1,0-0.1,0.1c-0.2,0.1-0.3,0.2-0.5,0.3c0,0-0.1,0-0.1,0.1c-0.1,0.1-0.2,0.2-0.3,0.3
			c0,0-0.1,0.1-0.1,0.1c-0.1,0.1-0.2,0.2-0.2,0.3c0,0.1-0.1,0.1-0.1,0.2c-0.1,0.1-0.1,0.2-0.2,0.3c0,0.1-0.1,0.1-0.1,0.2
			c0,0.1-0.1,0.2-0.1,0.4c0,0.1,0,0.1,0,0.2c-0.1,0.4-0.1,0.8,0,1.1c0,0.1,0,0.1,0,0.2c0,0.1,0.1,0.2,0.1,0.4c0,0.1,0.1,0.1,0.1,0.2
			c0,0.1,0.1,0.2,0.2,0.3c0,0.1,0.1,0.1,0.1,0.2c0.1,0.1,0.1,0.2,0.2,0.3c0,0,0.1,0.1,0.1,0.1c0.1,0.1,0.2,0.2,0.3,0.3
			c0,0,0.1,0.1,0.1,0.1c0.2,0.1,0.3,0.2,0.5,0.3c0,0,0.1,0,0.1,0.1c0.1,0,0.2,0.1,0.3,0.1v3.1h-3V38.4h3V40.8z M61.9,36.9h-1.6
			c0-0.1,0-0.1,0.1-0.2c0,0,0-0.1,0-0.1c0-0.1,0-0.3,0-0.4h1.5V36.9z"/>
		<path class="st1" d="M41,43.1c-0.3,0.3-0.3,0.8,0,1.1c0.3,0.3,0.8,0.3,1.1,0c0.3-0.3,0.3-0.8,0-1.1C41.7,42.9,41.3,42.9,41,43.1z"
			/>
		<path class="st1" d="M56.5,13.5c-0.1,0-0.1,0-0.2,0c-0.4,0.1-0.7,0.4-0.7,0.8c0.1,0.4,0.4,0.7,0.8,0.7c0.6,0.1,1.1,0.4,1.5,0.8
			c0.4,0.3,0.6,0.8,0.8,1.3c-0.2,0.4,0,0.8,0.4,1c0.1,0,0.2,0.1,0.3,0.1c0.1,0,0.1,0,0.2,0c0.3,0,0.6-0.3,0.7-0.6
			c0-1.1-0.5-2.1-1.3-2.8C58.4,14.1,57.5,13.6,56.5,13.5z"/>
		<path class="st1" d="M62.6,6.7c-0.4,0-0.8,0.3-0.8,0.8v3.5l-1.7,1.7c-1-0.9-2.3-1.4-3.6-1.4c-0.8,0-1.7,0.3-2.2,0.9
			c-0.8,0.8-1.1,2-0.8,3.1c0.3,1.2,0.9,2.4,1.8,3.3c1.1,1.2,2.6,1.8,4.1,1.9c0.8,0,1.7-0.3,2.2-0.9c0.8-0.8,1.1-2,0.8-3.1
			c-0.2-1-0.7-1.9-1.3-2.7l2-2c0.1-0.1,0.2-0.3,0.2-0.5V7.5C63.4,7.1,63,6.7,62.6,6.7z M60.7,18.5c-0.3,0.3-0.7,0.4-1.2,0.4
			c-1.2-0.1-2.3-0.6-3.1-1.5c-0.7-0.7-1.2-1.5-1.4-2.5c-0.2-0.6,0-1.3,0.4-1.8c0.3-0.3,0.7-0.4,1.2-0.4c1.2,0.1,2.3,0.6,3.1,1.5
			c0.7,0.7,1.2,1.5,1.4,2.5C61.2,17.4,61.1,18,60.7,18.5z"/>
		<path class="st1" d="M14.3,52.7h-0.8V18.5c0.4-0.3,0.7-0.7,0.9-1.1h6.6c1.3,0,2.3-1,2.3-2.3s-1-2.3-2.3-2.3h-0.8v-4
			c0.5-0.3,0.8-0.8,0.8-1.3c0-0.1,0-0.3-0.1-0.4l1.6-1.6l3.6,3.6c0.1,0.1,0.3,0.2,0.5,0.2c0,0,0.1,0,0.1,0l1.5-0.2l6.5,6.5
			c0.3,0.3,0.8,0.3,1.1,0c0.3-0.3,0.3-0.8,0-1L29.5,8l0.2-1.5c0-0.2,0-0.5-0.2-0.6l-5.7-5.7c-0.3-0.3-0.8-0.3-1.1,0l-0.5,0.5
			l-0.5-0.5c-0.3-0.3-0.8-0.3-1.1,0c-0.3,0.3-0.3,0.8,0,1l0.5,0.5l-0.5,0.5c-0.3,0.3-0.3,0.8,0,1.1l1,1L20,6.1
			c-0.1,0-0.3-0.1-0.4-0.1c-0.8,0-1.5,0.7-1.5,1.5c0,0.5,0.3,1,0.8,1.3v4h-4.4c-1.2-2.2-4-2.9-6.2-1.7c-2.2,1.2-2.9,4-1.7,6.2
			c0.2,0.4,0.6,0.8,0.9,1.1v3.4c-0.8,0-1.5,0.7-1.5,1.5v4.5c0,0.8,0.7,1.5,1.5,1.5v23.3H6.8c-0.4,0-0.8,0.3-0.8,0.8
			c0,0.4,0.3,0.8,0.8,0.8h7.5c0.4,0,0.8-0.3,0.8-0.8C15.1,53.1,14.8,52.7,14.3,52.7z M23.3,1.8l4.9,4.9L28,7.6l-0.9,0.1l-4.9-4.9
			L23.3,1.8z M21.1,14.3c0.4,0,0.8,0.3,0.8,0.8c0,0.4-0.3,0.8-0.8,0.8H15c0,0,0-0.1,0-0.1c0.1-0.4,0.1-0.9,0-1.4c0,0,0-0.1,0-0.1
			H21.1z M10.6,12.1c1.2,0,2.3,0.7,2.8,1.8c0.7,1.5,0,3.3-1.6,4c-0.7,0.3-1.5,0.3-2.2,0.1c-0.2-0.1-0.3-0.1-0.4-0.2
			c-0.1-0.1-0.3-0.2-0.4-0.3c-1.3-1-1.6-2.9-0.6-4.2C8.7,12.5,9.6,12.1,10.6,12.1z M7.5,23.4h1.5v4.5H7.5V23.4z M9.1,52.7V29.4
			c0.8,0,1.5-0.7,1.5-1.5v-4.5c0-0.8-0.7-1.5-1.5-1.5v-2.5c0,0,0,0,0,0c0.2,0.1,0.4,0.1,0.6,0.2c0,0,0,0,0.1,0c0.5,0.1,1,0.1,1.5,0
			c0,0,0,0,0.1,0c0.2,0,0.4-0.1,0.6-0.2c0,0,0,0,0,0v33.4H9.1z"/>
		<path class="st1" d="M10.6,16.6c0.8,0,1.5-0.7,1.5-1.5c0-0.8-0.7-1.5-1.5-1.5c-0.8,0-1.5,0.7-1.5,1.5C9.1,15.9,9.7,16.6,10.6,16.6
			z"/>
	</g>
</g>
</svg>
