<svg width="46" height="57" viewBox="0 0 46 57" fill="none" xmlns="http://www.w3.org/2000/svg">
<path d="M44.3298 44.49C42.5498 38.51 39.4098 29.06 39.4098 29.06C39.6498 24.28 38.1898 20.07 33.2298 17.84C34.9698 16.5 38.3998 15.61 38.3998 15.61L39.0698 9.83C39.0698 9.83 36.6398 9.03 31.2098 9.44C30.9398 7.71 30.1398 6.39 28.8098 5.51C25.9198 3.59 21.4098 4.34 19.7398 4.72V1H13.6898V7.13C13.6298 7.19 13.5698 7.24 13.5098 7.3L11.8698 4.83L6.24976 5.16L4.55977 21.68C1.33977 25.09 0.279764 29.21 1.47976 33.62C2.79976 38.46 6.49977 44.02 11.1498 48.11C15.2198 51.71 21.9898 56 31.0998 56C34.8298 56 38.6498 55.27 42.4498 53.82L42.4798 53.81C42.6498 53.72 46.5198 51.82 44.3298 44.49ZM38.3898 29.21C36.8998 29.04 33.3398 28.64 32.0998 24.77C31.3198 22.33 31.1898 20.12 32.4498 18.6C33.7898 19.12 38.8598 21.62 38.3898 29.21ZM14.7098 7.59C14.7398 7.29 14.7098 2.01 14.7098 2.01H18.7298V6.03C18.7298 6.03 25.1198 4.27 28.2598 6.35C29.3298 7.06 29.9898 8.14 30.2098 9.57C28.5698 9.82 27.0098 10.24 25.5498 10.82C22.1598 12.18 19.4098 14.4 17.3798 17.43L10.8698 17.56C10.7898 16.12 11.1098 10.21 14.7098 7.59ZM7.17976 6.12L11.3498 5.88L12.7898 8.06C9.61977 11.73 9.76976 16.6 9.85977 17.79C9.10977 18.16 7.40976 19.07 5.69976 20.59L7.17976 6.12ZM42.0598 52.88C38.3798 54.28 34.6898 54.99 31.0998 54.99C22.3198 54.99 15.7698 50.84 11.8298 47.36C7.32977 43.39 3.73976 38.02 2.46976 33.36C1.32976 29.17 2.33977 25.41 5.48977 22.19C7.63977 19.99 10.0998 18.8 10.5898 18.57L15.2798 18.48C13.5898 19.38 11.4298 20.95 10.0698 23.48C8.49976 26.41 8.36976 29.92 9.70976 33.94L10.6698 33.62C9.42976 29.88 9.52976 26.63 10.9598 23.96C13.1898 19.8 17.9698 18.42 18.0198 18.41C18.0198 18.41 22.3198 10.73 33.9798 10.29C35.8298 10.22 37.2898 10.49 37.9798 10.62L37.4998 14.82C33.9498 15.89 32.0298 17.08 31.1098 18.79C30.2698 20.36 30.2798 22.35 31.1498 25.07C32.6398 29.72 36.7998 30.02 38.7698 30.19C39.3598 32 41.8198 39.52 43.3798 44.77C45.2398 51.09 42.2998 52.76 42.0598 52.88Z" fill="#003974" stroke="#003974"/>
</svg>
